<svg width="80" height="12" viewBox="0 0 80 12" fill="none" xmlns="http://www.w3.org/2000/svg">
<path d="M1.176 10H0.084L3.744 1.6H4.86L8.508 10H7.428L6.564 7.972H2.04L1.176 10ZM4.164 2.956L2.436 7.036H6.168L4.428 2.956C4.412 2.916 4.368 2.808 4.296 2.632C4.224 2.816 4.18 2.924 4.164 2.956ZM15.3638 1.6H16.3718V6.928C16.3718 7.504 16.2758 8.008 16.0838 8.44C15.8998 8.864 15.6398 9.2 15.3038 9.448C14.9758 9.688 14.6078 9.864 14.1998 9.976C13.7998 10.088 13.3558 10.144 12.8678 10.144C11.8358 10.144 10.9918 9.888 10.3358 9.376C9.67975 8.864 9.35175 8.048 9.35175 6.928V1.6H10.3598V6.88C10.3598 8.416 11.1958 9.184 12.8678 9.184C14.5318 9.184 15.3638 8.416 15.3638 6.88V1.6ZM19.4909 10H18.4829V1.6H21.7709C22.3229 1.6 22.8229 1.676 23.2709 1.828C23.7189 1.972 24.1029 2.244 24.4229 2.644C24.7509 3.036 24.9149 3.536 24.9149 4.144C24.9149 4.864 24.7069 5.424 24.2909 5.824C23.8749 6.224 23.3349 6.484 22.6709 6.604L25.5149 10H24.2549L21.5069 6.688H19.4909V10ZM19.4909 2.56V5.728H21.8189C22.4109 5.728 22.9029 5.608 23.2949 5.368C23.6949 5.12 23.8949 4.712 23.8949 4.144C23.8949 3.568 23.6949 3.16 23.2949 2.92C22.9029 2.68 22.4109 2.56 21.8189 2.56H19.4909ZM26.8987 10H25.8067L29.4667 1.6H30.5827L34.2307 10H33.1507L32.2867 7.972H27.7627L26.8987 10ZM29.8867 2.956L28.1587 7.036H31.8907L30.1507 2.956C30.1347 2.916 30.0907 2.808 30.0187 2.632C29.9467 2.816 29.9027 2.924 29.8867 2.956ZM43.2587 3.904C43.5307 4.472 43.6667 5.104 43.6667 5.8C43.6667 6.496 43.5307 7.128 43.2587 7.696C42.9947 8.264 42.6427 8.72 42.2027 9.064C41.7627 9.408 41.2787 9.676 40.7507 9.868C40.2227 10.052 39.6867 10.144 39.1427 10.144C38.5987 10.144 38.0627 10.052 37.5347 9.868C37.0067 9.676 36.5227 9.408 36.0827 9.064C35.6427 8.72 35.2867 8.264 35.0147 7.696C34.7507 7.128 34.6187 6.496 34.6187 5.8C34.6187 5.104 34.7507 4.472 35.0147 3.904C35.2867 3.336 35.6427 2.88 36.0827 2.536C36.5227 2.192 37.0067 1.928 37.5347 1.744C38.0627 1.552 38.5987 1.456 39.1427 1.456C39.6867 1.456 40.2227 1.552 40.7507 1.744C41.2787 1.928 41.7627 2.192 42.2027 2.536C42.6427 2.88 42.9947 3.336 43.2587 3.904ZM35.3507 4.072C35.1107 4.584 34.9907 5.16 34.9907 5.8C34.9907 6.44 35.1107 7.02 35.3507 7.54C35.5987 8.052 35.9227 8.468 36.3227 8.788C36.7227 9.108 37.1627 9.356 37.6427 9.532C38.1307 9.7 38.6307 9.784 39.1427 9.784C39.6547 9.784 40.1507 9.7 40.6307 9.532C41.1187 9.356 41.5627 9.108 41.9627 8.788C42.3627 8.468 42.6827 8.052 42.9227 7.54C43.1707 7.02 43.2947 6.44 43.2947 5.8C43.2947 5.16 43.1707 4.584 42.9227 4.072C42.6827 3.552 42.3627 3.132 41.9627 2.812C41.5627 2.492 41.1187 2.248 40.6307 2.08C40.1507 1.904 39.6547 1.816 39.1427 1.816C38.6307 1.816 38.1307 1.904 37.6427 2.08C37.1627 2.248 36.7227 2.492 36.3227 2.812C35.9227 3.132 35.5987 3.552 35.3507 4.072ZM38.1587 8.152H37.4387V3.436H39.4667C39.7627 3.436 40.0347 3.472 40.2827 3.544C40.5307 3.616 40.7547 3.768 40.9547 4C41.1627 4.232 41.2667 4.536 41.2667 4.912C41.2667 5.632 40.9227 6.088 40.2347 6.28L41.5547 8.152H40.7267L39.5027 6.388H39.3467H38.1587V8.152ZM38.1587 4.132V5.692H39.3947C39.5547 5.692 39.6827 5.688 39.7787 5.68C39.8747 5.664 39.9907 5.636 40.1267 5.596C40.2707 5.556 40.3787 5.48 40.4507 5.368C40.5227 5.248 40.5587 5.096 40.5587 4.912C40.5587 4.728 40.5227 4.58 40.4507 4.468C40.3787 4.348 40.2707 4.268 40.1267 4.228C39.9907 4.188 39.8747 4.164 39.7787 4.156C39.6827 4.14 39.5547 4.132 39.3947 4.132H38.1587ZM49.0628 11.2H48.0548V0.279999H49.0628V11.2ZM53.7027 2.488C54.4627 1.96 55.3347 1.696 56.3187 1.696C57.1667 1.696 57.8427 1.888 58.3467 2.272C58.8507 2.656 59.1027 3.192 59.1027 3.88C59.1027 4.208 59.0387 4.516 58.9107 4.804C58.7907 5.092 58.6067 5.356 58.3587 5.596C58.1187 5.836 57.8827 6.04 57.6507 6.208C57.4267 6.368 57.1427 6.548 56.7987 6.748C56.7587 6.772 56.6347 6.844 56.4267 6.964C56.2267 7.084 56.0987 7.16 56.0427 7.192C55.9947 7.224 55.8827 7.296 55.7067 7.408C55.5387 7.512 55.4267 7.588 55.3707 7.636C55.3227 7.684 55.2347 7.76 55.1067 7.864C54.9867 7.968 54.9027 8.056 54.8547 8.128C54.8147 8.2 54.7587 8.292 54.6867 8.404C54.6227 8.508 54.5787 8.612 54.5547 8.716C54.5307 8.82 54.5187 8.932 54.5187 9.052L59.1627 9.04V10H53.4147V9.52C53.4147 9.072 53.4867 8.668 53.6307 8.308C53.7747 7.94 53.9787 7.628 54.2427 7.372C54.5147 7.108 54.7827 6.888 55.0467 6.712C55.3107 6.528 55.6187 6.332 55.9707 6.124C56.0507 6.084 56.1107 6.052 56.1507 6.028C56.8787 5.604 57.3547 5.28 57.5787 5.056C57.9227 4.704 58.0947 4.308 58.0947 3.868C58.0947 3.468 57.9307 3.164 57.6027 2.956C57.2827 2.74 56.8267 2.632 56.2347 2.632C55.3707 2.632 54.5267 2.92 53.7027 3.496V2.488ZM61.3013 8.98C60.6933 8.204 60.3893 7.184 60.3893 5.92C60.3893 4.656 60.6933 3.636 61.3013 2.86C61.9093 2.084 62.8053 1.696 63.9893 1.696C65.1813 1.696 66.0813 2.084 66.6893 2.86C67.2973 3.628 67.6013 4.648 67.6013 5.92C67.6013 7.192 67.2973 8.216 66.6893 8.992C66.0813 9.76 65.1813 10.144 63.9893 10.144C62.8053 10.144 61.9093 9.756 61.3013 8.98ZM65.9333 8.344C66.3653 7.776 66.5813 6.968 66.5813 5.92C66.5813 4.872 66.3653 4.068 65.9333 3.508C65.5093 2.94 64.8613 2.656 63.9893 2.656C63.1173 2.656 62.4693 2.94 62.0453 3.508C61.6213 4.068 61.4093 4.872 61.4093 5.92C61.4093 6.968 61.6213 7.776 62.0453 8.344C62.4693 8.904 63.1173 9.184 63.9893 9.184C64.8613 9.184 65.5093 8.904 65.9333 8.344ZM69.0308 2.488C69.7908 1.96 70.6628 1.696 71.6468 1.696C72.4948 1.696 73.1708 1.888 73.6748 2.272C74.1788 2.656 74.4308 3.192 74.4308 3.88C74.4308 4.208 74.3668 4.516 74.2388 4.804C74.1188 5.092 73.9348 5.356 73.6868 5.596C73.4468 5.836 73.2108 6.04 72.9788 6.208C72.7548 6.368 72.4708 6.548 72.1268 6.748C72.0868 6.772 71.9628 6.844 71.7548 6.964C71.5548 7.084 71.4268 7.16 71.3708 7.192C71.3228 7.224 71.2108 7.296 71.0348 7.408C70.8668 7.512 70.7548 7.588 70.6988 7.636C70.6508 7.684 70.5628 7.76 70.4348 7.864C70.3148 7.968 70.2308 8.056 70.1828 8.128C70.1428 8.2 70.0868 8.292 70.0148 8.404C69.9508 8.508 69.9068 8.612 69.8828 8.716C69.8588 8.82 69.8468 8.932 69.8468 9.052L74.4908 9.04V10H68.7428V9.52C68.7428 9.072 68.8148 8.668 68.9588 8.308C69.1028 7.94 69.3068 7.628 69.5708 7.372C69.8428 7.108 70.1108 6.888 70.3748 6.712C70.6388 6.528 70.9468 6.332 71.2988 6.124C71.3788 6.084 71.4388 6.052 71.4788 6.028C72.2068 5.604 72.6828 5.28 72.9068 5.056C73.2508 4.704 73.4228 4.308 73.4228 3.868C73.4228 3.468 73.2588 3.164 72.9308 2.956C72.6108 2.74 72.1548 2.632 71.5628 2.632C70.6988 2.632 69.8548 2.92 69.0308 3.496V2.488ZM77.7215 1.84H78.4655V9.04H79.9895V10H75.7415V9.04H77.4575V2.908L75.7415 3.556V2.596L77.7215 1.84Z" fill="#EDEDF2"/>
</svg>
